<?xml version="1.0" encoding="UTF-8"?>
<svg width="151px" height="40px" viewBox="0 0 151 40" version="1.1" xmlns="http://www.w3.org/2000/svg" xmlns:xlink="http://www.w3.org/1999/xlink">
    <!-- Generator: Sketch 51.3 (57544) - http://www.bohemiancoding.com/sketch -->
    <title>ICONOS/logo_fizzmod</title>
    <desc>Created with Sketch.</desc>
    <defs></defs>
    <g id="Diseño" stroke="none" stroke-width="1" fill="none" fill-rule="evenodd">
        <g id="ICONOS/logo_fizzmod" fill="#1DB779">
            <path d="M39.8735145,19.0612 L39.8735145,17.4792 C39.8735145,15.0122 39.8735145,14.4432 40.8225145,12.8932 C41.8345145,11.2172 43.4795145,10.6472 45.3455145,10.6472 C46.1995145,10.6472 46.8005145,10.8682 47.2125145,11.1222 L47.2125145,13.6522 C46.7375145,13.4312 45.9465145,13.1462 44.9345145,13.5572 C43.3845145,14.2532 43.1315145,14.8862 43.1315145,17.4792 L43.1315145,19.0612 L47.2125145,19.0612 L47.2125145,21.7182 L43.1315145,21.7182 L43.1315145,34.6862 L39.8735145,34.6862 L39.8735145,21.7182 L39.8735145,19.0612 Z M50.5321145,34.6867 L50.5321145,19.0617 L53.7901145,19.0617 L53.7901145,34.6867 L50.5321145,34.6867 Z M52.1451145,15.1387 C51.1651145,15.1387 50.3741145,14.3477 50.3741145,13.3357 C50.3741145,12.3547 51.1651145,11.5657 52.1451145,11.5657 C53.1581145,11.5657 53.9481145,12.3547 53.9481145,13.3357 C53.9481145,14.3477 53.1581145,15.1387 52.1451145,15.1387 Z M69.2880145,21.8449 L61.4120145,32.0289 L69.2880145,32.0289 L69.2880145,34.6869 L58.0590145,34.6869 L58.0590145,31.7129 L65.9040145,21.7179 L58.0590145,21.7179 L58.0590145,19.0609 L69.2880145,19.0609 L69.2880145,21.8449 Z M84.3115145,21.8449 L76.4365145,32.0289 L84.3115145,32.0289 L84.3115145,34.6869 L73.0825145,34.6869 L73.0825145,31.7129 L80.9275145,21.7179 L73.0825145,21.7179 L73.0825145,19.0609 L84.3115145,19.0609 L84.3115145,21.8449 Z M102.466214,34.6867 L99.1762145,34.6867 L99.2082145,34.5597 L99.2082145,25.9877 C99.2082145,22.8247 98.3852145,21.4337 95.6972145,21.4337 C92.6612145,21.4337 91.5852145,23.5527 91.5852145,26.3047 L91.5852145,34.6867 L88.3272145,34.6867 L88.3272145,19.0617 L91.5852145,19.0617 L91.5852145,21.5917 C92.0282145,20.1987 93.8312145,18.9347 95.6972145,18.8087 C98.7652145,18.5867 100.947214,19.5987 101.928214,22.1287 C102.592214,19.9787 104.712214,18.9347 106.546214,18.8087 C110.784214,18.4917 113.315214,20.5477 113.315214,25.6717 L113.315214,34.6867 L110.057214,34.6867 L110.057214,25.9877 C110.057214,22.8247 109.234214,21.4337 106.546214,21.4337 C103.826214,21.4337 102.687214,23.1417 102.466214,25.6717 L102.466214,34.6867 Z M132.544414,26.9055 C132.544414,31.5545 128.907414,35.0025 124.416414,35.0025 C119.924414,35.0025 116.287414,31.5545 116.287414,26.9055 C116.287414,22.2565 119.924414,18.7765 124.416414,18.7765 C128.907414,18.7765 132.544414,22.2565 132.544414,26.9055 Z M119.544414,26.9055 C119.544414,30.0685 121.727414,32.3455 124.416414,32.3455 C127.104414,32.3455 129.286414,30.0685 129.286414,26.9055 C129.286414,23.7105 127.104414,21.4655 124.416414,21.4655 C121.727414,21.4655 119.544414,23.7105 119.544414,26.9055 Z M143.203014,18.7764 C144.752014,18.7764 146.650014,19.4404 147.694014,20.2954 L147.694014,10.9644 L150.984014,10.9644 L150.984014,34.6864 L147.694014,34.6864 L147.694014,33.5154 C146.460014,34.4334 144.752014,35.0024 143.203014,35.0024 C138.711014,35.0024 135.391014,31.5544 135.391014,26.9054 C135.391014,22.2564 138.711014,18.7764 143.203014,18.7764 Z M143.519014,32.3454 C145.290014,32.3454 146.872014,31.5234 147.694014,29.8464 C148.137014,28.9924 148.390014,27.9804 148.390014,26.9054 C148.390014,25.8294 148.137014,24.8174 147.694014,23.9314 C146.872014,22.2564 145.290014,21.4654 143.519014,21.4654 C140.862014,21.4654 138.680014,23.7104 138.680014,26.9054 C138.680014,30.0684 140.862014,32.3454 143.519014,32.3454 Z M27.8203145,29.1726 C27.8763145,29.2426 29.8313145,31.8676 29.1223145,34.4946 C28.7193145,35.9836 27.5793145,37.1306 25.7343145,37.9006 C25.6573145,37.9396 22.5353145,39.4536 14.6393145,39.4536 C6.74331448,39.4536 3.62031448,37.9396 3.49031448,37.8746 C1.69731448,37.1306 0.557314476,35.9836 0.155314476,34.4946 C-0.555685524,31.8676 1.40031448,29.2426 1.48331448,29.1306 L9.97431448,16.4966 L9.97431448,10.7806 L8.93831448,10.7806 C8.45831448,10.7806 8.06831448,10.3906 8.06831448,9.9106 C8.06831448,9.4306 8.45831448,9.0416 8.93831448,9.0416 L20.3403145,9.0416 C20.8193145,9.0416 21.2093145,9.4306 21.2093145,9.9106 C21.2093145,10.3906 20.8193145,10.7806 20.3403145,10.7806 L19.3023145,10.7806 L19.3023145,16.4966 L27.8203145,29.1726 Z M27.4423145,34.0476 C27.9333145,32.2496 26.4213145,30.1986 26.4043145,30.1776 L17.7103145,17.2476 C17.6133145,17.1046 17.5623145,16.9356 17.5623145,16.7636 L17.5623145,10.7806 L11.7143145,10.7806 L11.7143145,16.7636 C11.7143145,16.9356 11.6623145,17.1046 11.5663145,17.2476 L2.89831448,30.1406 C2.85631448,30.1986 1.34431448,32.2466 1.83431448,34.0476 C2.09131448,34.9856 2.89131448,35.7426 4.21331448,36.2956 C4.29231448,36.3306 7.23131448,37.7146 14.6393145,37.7146 C22.0463145,37.7146 24.9853145,36.3306 25.0133145,36.3186 C26.3853145,35.7426 27.1853145,34.9886 27.4423145,34.0476 Z M24.1236145,30.6199 C24.4046145,31.0019 25.1506145,32.3069 24.8876145,33.2609 C24.7326145,33.8109 24.2036145,34.2779 23.3116145,34.6519 C23.2766145,34.6659 23.2616145,34.6719 23.2296145,34.6899 C23.2056145,34.7019 20.7436145,35.8209 14.5776145,35.8209 C8.41361448,35.8209 5.94661448,34.6979 5.94661448,34.6979 C5.91161448,34.6829 5.87761448,34.6659 5.84461448,34.6519 C4.95361448,34.2779 4.42161448,33.8109 4.26861448,33.2609 C4.00361448,32.3069 4.75161448,31.0019 5.02761448,30.6289 C5.04361448,30.6029 5.06161448,30.5799 5.07861448,30.5549 L8.42861448,25.5659 C8.81961448,27.4499 11.3776145,28.8609 14.5776145,28.8609 C15.2346145,28.8609 15.8606145,28.7959 16.4506145,28.6849 C16.4196145,28.8149 16.3706145,28.9379 16.3706145,29.0749 C16.3706145,30.0859 17.1886145,30.9029 18.1996145,30.9029 C19.2076145,30.9029 20.0266145,30.0859 20.0266145,29.0749 C20.0266145,28.4519 19.6926145,27.9289 19.2176145,27.5979 C20.0206145,27.0469 20.5646145,26.3509 20.7246145,25.5659 L24.0766145,30.5549 C24.0906145,30.5759 24.1106145,30.5989 24.1236145,30.6199 Z M16.0536145,33.7609 C16.5686145,33.7609 16.9886145,33.3439 16.9886145,32.8259 C16.9886145,32.3109 16.5686145,31.8919 16.0536145,31.8919 C15.5376145,31.8919 15.1186145,32.3109 15.1186145,32.8259 C15.1186145,33.3439 15.5376145,33.7609 16.0536145,33.7609 Z M14.5781145,22.1594 C17.0161145,22.1594 19.0761145,23.2404 19.0761145,24.5244 C19.0761145,25.8004 17.0161145,26.8864 14.5781145,26.8864 C12.1401145,26.8864 10.0771145,25.8004 10.0771145,24.5244 C10.0771145,23.2404 12.1401145,22.1594 14.5781145,22.1594 Z M18.1249145,1.715 C18.1249145,2.662 17.3599145,3.429 16.4119145,3.429 C15.4659145,3.429 14.6989145,2.662 14.6989145,1.715 C14.6989145,0.768 15.4659145,0 16.4119145,0 C17.3599145,0 18.1249145,0.768 18.1249145,1.715 Z M13.3027145,5.4567 C13.3027145,6.0377 12.8307145,6.5107 12.2457145,6.5107 C11.6637145,6.5107 11.1917145,6.0377 11.1917145,5.4567 C11.1917145,4.8727 11.6637145,4.4007 12.2457145,4.4007 C12.8307145,4.4007 13.3027145,4.8727 13.3027145,5.4567 Z" id="Combined-Shape-Copy"></path>
        </g>
    </g>
</svg>